<?xml version="1.0" encoding="utf-8"?>
<!-- Generator: Adobe Illustrator 21.1.0, SVG Export Plug-In . SVG Version: 6.00 Build 0)  -->
<svg version="1.1" xmlns="http://www.w3.org/2000/svg" xmlns:xlink="http://www.w3.org/1999/xlink" x="0px" y="0px"
	 viewBox="0 0 432 432" style="enable-background:new 0 0 432 432;" xml:space="preserve">
<style type="text/css">
	.st0{display:none;}
	.st1{display:inline;}
</style>
<g id="music" class="st0">
	<circle class="st1" cx="216.5" cy="216.5" r="27.5"/>
	<path class="st1" d="M224.4,250.7c-3.6,0.9-7.5,1.2-11.4,0.8c-17.5-1.5-31.6-16-32.6-33.5c-1.3-21.6,16.6-39.3,38.1-37.9
		c18.1,1.2,32.7,16.1,33.4,34.2c0.4,8.7-2.4,16.8-7.2,23.2c-2.7,3.6-1.7,8.7,2.2,11L328,295c3.5,2,7.9,0.9,10-2.5
		c20.2-32.1,28-72.7,16.9-115.2C342.1,128,303.2,89.4,253.8,76.8C157.9,52.4,71.9,124.2,72,216.1c0.1,78.7,64.2,143.3,142.9,143.9
		c32.5,0.2,62.5-10.3,86.7-28.1c3.7-2.7,4-8.1,0.7-11.3l-70.9-68C229.5,250.8,226.9,250.1,224.4,250.7z"/>
</g>
<g id="key_1_" class="st0">
	<g class="st1">
		<path d="M199.1,182.1c-1.4,2.3-7.6,8.9-10.3,10.9c-3.3,2.5-8.1,3.9-12.4,3.9h-25.8c-4.3,0-8.9-1.4-12.2-3.9
			c-2.7-2.1-8.9-8.7-10.3-10.9c-2.1-3.1-3.1-6.6-3.1-10.5V97c0-3.9,1-7.6,3.1-10.7c1.4-2.3,7.6-8.9,10.3-10.9
			c3.3-2.5,7.8-3.9,12.2-3.9h25.8c4.3,0,9.1,1.4,12.4,3.9c2.7,2.1,8.9,8.7,10.3,10.9c2.1,3.1,3.1,6.8,3.1,10.7v74.6
			C202.2,175.5,201.2,179,199.1,182.1z M190.3,97.4c0-1.2-0.2-2.7-0.6-3.5c-1.9-3.5-6.6-8.3-9.9-10.1c-1-0.6-2.3-0.8-3.5-0.8h-25.4
			c-1.2,0-2.5,0.2-3.5,0.8c-3.3,1.9-8.1,6.6-9.9,10.1c-0.4,0.8-0.4,2.3-0.4,3.5v73.7c0,1.2,0,2.5,0.4,3.3c1.9,3.5,6.6,8.3,9.9,10.1
			c1,0.6,2.3,0.8,3.5,0.8h25.4c1.2,0,2.5-0.2,3.5-0.8c3.3-1.9,8.1-6.6,9.9-10.1c0.4-0.8,0.6-2.1,0.6-3.3V97.4z"/>
		<path d="M234.2,191.8v-2.9c0-2.4,1.9-4.3,4.3-4.3h21.3c2.4,0,4.3-1.9,4.3-4.3V88.1c0-2.4-1.9-4.3-4.3-4.3h-19.4
			c-2.4,0-4.3-1.9-4.3-4.3v-2.9c0-2.4,1.9-4.3,4.3-4.3h31.4c2.4,0,4.3,1.9,4.3,4.3v103.7c0,2.4,1.9,4.3,4.3,4.3h19.2
			c2.4,0,4.3,1.9,4.3,4.3v2.9c0,2.4-1.9,4.3-4.3,4.3h-61.1C236.2,196.1,234.2,194.2,234.2,191.8z"/>
		<path d="M130.2,354.8V352c0-2.4,1.9-4.3,4.3-4.3h21.3c2.4,0,4.3-1.9,4.3-4.3v-92.1c0-2.4-1.9-4.3-4.3-4.3h-19.4
			c-2.4,0-4.3-1.9-4.3-4.3v-2.9c0-2.4,1.9-4.3,4.3-4.3h31.4c2.4,0,4.3,1.9,4.3,4.3v103.7c0,2.4,1.9,4.3,4.3,4.3h19.2
			c2.4,0,4.3,1.9,4.3,4.3v2.9c0,2.4-1.9,4.3-4.3,4.3h-61.1C132.1,359.2,130.2,357.2,130.2,354.8z"/>
		<path d="M303.2,345.1c-1.4,2.3-7.6,8.9-10.3,10.9c-3.3,2.5-8.1,3.9-12.4,3.9h-25.8c-4.3,0-8.9-1.4-12.2-3.9
			c-2.7-2.1-8.9-8.7-10.3-10.9c-2.1-3.1-3.1-6.6-3.1-10.5V260c0-3.9,1-7.6,3.1-10.7c1.4-2.3,7.6-8.9,10.3-10.9
			c3.3-2.5,7.8-3.9,12.2-3.9h25.8c4.3,0,9.1,1.4,12.4,3.9c2.7,2.1,8.9,8.7,10.3,10.9c2.1,3.1,3.1,6.8,3.1,10.7v74.6
			C306.3,338.5,305.3,342,303.2,345.1z M294.3,260.5c0-1.2-0.2-2.7-0.6-3.5c-1.9-3.5-6.6-8.3-9.9-10.1c-1-0.6-2.3-0.8-3.5-0.8h-25.4
			c-1.2,0-2.5,0.2-3.5,0.8c-3.3,1.9-8.1,6.6-9.9,10.1c-0.4,0.8-0.4,2.3-0.4,3.5v73.7c0,1.2,0,2.5,0.4,3.3c1.9,3.5,6.6,8.3,9.9,10.1
			c1,0.6,2.3,0.8,3.5,0.8h25.4c1.2,0,2.5-0.2,3.5-0.8c3.3-1.9,8.1-6.6,9.9-10.1c0.4-0.8,0.6-2.1,0.6-3.3V260.5z"/>
	</g>
</g>
<g id="decryptor" class="st0">
	<path class="st1" d="M234,237v12.9c0,1.3,0.8,2.4,2,2.8l19.3,6.4c2.3,0.8,4.6-1.4,3.8-3.8l-6.4-19.3c-0.4-1.2-1.6-2-2.8-2H237
		C235.3,234,234,235.3,234,237z"/>
	<path class="st1" d="M198,195v-12.9c0-1.3-0.8-2.4-2-2.8l-19.3-6.4c-2.3-0.8-4.6,1.4-3.8,3.8l6.4,19.3c0.4,1.2,1.6,2,2.8,2H195
		C196.7,198,198,196.7,198,195z"/>
	<path class="st1" d="M311.1,72.9l-94.2,94.2c-0.6,0.6-0.9,1.3-0.9,2.1v31.1c0,2.7,3.2,4,5.1,2.1l6-6c0.6-0.6,0.9-1.3,0.9-2.1v-21
		c0-0.8,0.3-1.6,0.9-2.1l86.2-86.2c0.6-0.6,1.3-0.9,2.1-0.9H345c1.7,0,3,1.3,3,3v27.8c0,0.8-0.3,1.6-0.9,2.1l-86.2,86.2
		c-0.6,0.6-1.3,0.9-2.1,0.9h-21c-0.8,0-1.6,0.3-2.1,0.9l-6,6c-1.9,1.9-0.5,5.1,2.1,5.1h31.1c0.8,0,1.6-0.3,2.1-0.9l94.2-94.2
		c0.6-0.6,0.9-1.3,0.9-2.1V75c0-1.7-1.3-3-3-3h-43.8C312.4,72,311.7,72.3,311.1,72.9z"/>
	<path class="st1" d="M204,237.7v21c0,0.8-0.3,1.6-0.9,2.1l-86.2,86.2c-0.6,0.6-1.3,0.9-2.1,0.9H87c-1.7,0-3-1.3-3-3v-27.8
		c0-0.8,0.3-1.6,0.9-2.1l86.2-86.2c0.6-0.6,1.3-0.9,2.1-0.9h21c0.8,0,1.6-0.3,2.1-0.9l6-6c1.9-1.9,0.5-5.1-2.1-5.1h-31.1
		c-0.8,0-1.6,0.3-2.1,0.9l-94.2,94.2c-0.6,0.6-0.9,1.3-0.9,2.1V357c0,1.7,1.3,3,3,3h43.8c0.8,0,1.6-0.3,2.1-0.9l94.2-94.2
		c0.6-0.6,0.9-1.3,0.9-2.1v-31.1c0-2.7-3.2-4-5.1-2.1l-6,6C204.3,236.2,204,236.9,204,237.7z"/>
</g>
<g id="blackbox" class="st0">
	<g class="st1">
		<path d="M221,224.1v117.6c0,6.9,7.4,11.2,13.4,7.8l103.1-58.9c2.8-1.6,4.5-4.6,4.5-7.8V165.2c0-6.9-7.4-11.2-13.4-7.8l-103.1,58.9
			C222.7,217.9,221,220.9,221,224.1z"/>
		<g>
			<path d="M220.5,207.7l102.9-58.8c6-3.4,6-12.1,0-15.6L220.5,74.5c-2.8-1.6-6.1-1.6-8.9,0l-102.9,58.8c-6,3.4-6,12.1,0,15.6
				l102.9,58.8C214.3,209.3,217.7,209.3,220.5,207.7z"/>
			<path d="M90,165.2v117.6c0,3.2,1.7,6.2,4.5,7.8l103.1,58.9c6,3.4,13.4-0.9,13.4-7.8V224.1c0-3.2-1.7-6.2-4.5-7.8l-103.1-58.9
				C97.4,154,90,158.3,90,165.2z"/>
		</g>
	</g>
</g>
<g id="mail">
	<path d="M345.5,136.3l-114.2,94c-8.9,7.4-21.8,7.4-30.8,0l-114.2-94c-3.2-2.7-8.1-1.9-10.3,1.6c-2.6,4-4.1,8.9-4.1,14v128
		c0,14.4,11.6,26,26,26h236c14.4,0,26-11.6,26-26V152c0-5.2-1.5-10-4.1-14C353.6,134.4,348.8,133.6,345.5,136.3z"/>
	<path d="M112.4,139.7l88.2,72.6c8.9,7.4,21.8,7.4,30.8,0l88.2-72.6c1.9-1.6,0.8-4.7-1.7-4.7H114.1
		C111.6,135,110.5,138.1,112.4,139.7z"/>
</g>
<g id="logo" class="st0">
	<g class="st1">
		<path d="M172.1,211.7l35.5-82.8c2.4-5.6,10.4-5.6,12.8,0l46.8,109.2l36.5,10.2L230.5,81h-33l-53.7,122.8L172.1,211.7z"/>
		<path d="M286.7,283.6l13.3,31c7.9,18.4,26,30.3,46,30.3l-22.3-51.1L286.7,283.6z"/>
		<path d="M128.2,239.4L82,345c20,0,38.1-11.9,46-30.3l28.8-67.2L128.2,239.4z"/>
	</g>
	<path class="st1" d="M358.1,292L72,212.4l2-7.2c1.3-4.8,6.3-7.6,11.1-6.3l268.7,74.8c4.8,1.3,7.6,6.3,6.3,11.1L358.1,292z"/>
</g>
</svg>
